PathFileType	4	(X/Y/Z)	Walk2.trc
DataRate	CameraRate	NumFrames	NumMarkers	Units	OrigDataRate	OrigDataStartFrame	OrigNumFrames
200.000000	200.000000	4	59	mm	200.000000	308	485
Frame#	Times		LBHD		C7		T10		RBack		LPSI		RPSI		RCAR		LElbowM		LMT1		LLFC		RWRR		LFHD		LUA1		RUA1		RFA1		CLAV		LCAR		RFHD		RElbowM		LWRU		LACR1		RBHD		RACR1		RTH3		LFA1		RWRU		RTH4		RTH2		RTB1		RTB4		RCAL		RToe		RTB3		RLFC		RMT1		RMT5		LWRR		RElbow		RTB2		LTH4		RTH1		LTH1		LTB3		STRN		LElbow		RMMAL		LTH3		RASI		LTH2		LCAL		LASI		LLMAL		RLMAL		LTB2		LTB4		LMT5		LMMAL		LToe		LTB1
			X1	Y1	Z1	X2	Y2	Z2	X3	Y3	Z3	X4	Y4	Z4	X5	Y5	Z5	X6	Y6	Z6	X7	Y7	Z7	X8	Y8	Z8	X9	Y9	Z9	X10	Y10	Z10	X11	Y11	Z11	X12	Y12	Z12	X13	Y13	Z13	X14	Y14	Z14	X15	Y15	Z15	X16	Y16	Z16	X17	Y17	Z17	X18	Y18	Z18	X19	Y19	Z19	X20	Y20	Z20	X21	Y21	Z21	X22	Y22	Z22	X23	Y23	Z23	X24	Y24	Z24	X25	Y25	Z25	X26	Y26	Z26	X27	Y27	Z27	X28	Y28	Z28	X29	Y29	Z29	X30	Y30	Z30	X31	Y31	Z31	X32	Y32	Z32	X33	Y33	Z33	X34	Y34	Z34	X35	Y35	Z35	X36	Y36	Z36	X37	Y37	Z37	X38	Y38	Z38	X39	Y39	Z39	X40	Y40	Z40	X41	Y41	Z41	X42	Y42	Z42	X43	Y43	Z43	X44	Y44	Z44	X45	Y45	Z45	X46	Y46	Z46	X47	Y47	Z47	X48	Y48	Z48	X49	Y49	Z49	X50	Y50	Z50	X51	Y51	Z51	X52	Y52	Z52	X53	Y53	Z53	X54	Y54	Z54	X55	Y55	Z55	X56	Y56	Z56	X57	Y57	Z57	X58	Y58	Z58	X59	Y59	Z59

308	1.54	122.12	1464.6	-58.265	92.125	1332.4	10.252	62.9	1062.4	-11.121	62.774	1226.7	129.41	36.586	882.28	-42.614	41.359	875.18	56.286	128.35	701.74	315.16	98.66	961.09	-216.89	-76.83	53.273	-42.874	78.434	434.98	-151.89	170.51	734.23	276.31	294.94	1460.6	-38.757	169.22	1115.5	-250.27	139.31	1104.7	237.42	82.773	840.13	275.94	214.83	1250.6	14.083	289.97	752.24	-319.4	302.49	1472.2	37.185	64.51	932.87	181.96	233.63	777.7	-308.64	174.88	1279.8	-154.9	123	1475.9	64.768	159.79	1260.8	163.11	289.41	537.97	146.78	180.01	883.71	-303.62	95.868	728.88	269.94	254.95	624.6	170.02	318.78	659.26	143.03	388.3	336.49	45.43	399.12	245.23	50.46	350.95	34.647	78.275	560.49	39.789	38.683	421.09	153.89	49.046	340.16	453.18	129.22	501.67	58.531	32.372	488.01	38.639	84.832	292.86	788.48	-265.6	94.48	965.91	265.96	380.77	242.36	119.56	157.22	623.77	-178.93	224.99	705.63	194.59	172.09	714.4	-203.8	-63.176	175.51	-52.531	278.85	1147.6	6.673	128.49	1001.6	-280.02	402.77	71.559	18.644	135.33	533.78	-159.22	270.23	846.97	146.81	219.45	623.98	-142.15	-213.19	121	-44.045	204.88	850.5	-163.08	-161.29	122.75	-90.076	407.23	65.036	97.884	-36.134	263.53	-127.37	-12.585	251.41	-61.578	-108.65	47.522	-96.54	-139.13	117.8	-12.805	-40.695	22.73	-54.152	52.405	316.34	-70.106
309	1.545	128.65	1465.5	-57.229	98.787	1333.3	11.353	69.671	1063.3	-10.236	69.666	1227.3	130.51	43.508	882.34	-42.399	48.248	875.86	56.685	136.76	701.95	315.54	105.51	961.92	-215.27	-74.657	53.957	-42.745	88.85	434.8	-152.64	178.88	734.41	276.63	301.5	1461.5	-37.878	175.66	1116.3	-249.2	147.27	1105	238.04	91.164	840.32	276.32	221.48	1251.5	14.976	295.04	752.12	-318.95	309.1	1473.1	38.056	72.723	933.14	182.35	238.87	777.88	-308.01	181.35	1280.7	-154.01	129.65	1476.7	65.813	166.65	1261.4	164.12	295.75	539	147.42	185.91	884.21	-302.6	104.22	729.07	270.36	262.25	626.03	170.61	326.01	660.05	142.7	392.93	336.39	45.794	402.49	244.98	50.7	351.32	35.048	78.371	561.17	36.771	38.524	423.24	153.33	49.229	345.88	453.58	129.77	502.53	56.579	32.365	488.49	36.997	84.959	298.3	788.22	-265.11	102.95	966.04	266.44	384.28	242.3	119.88	165.96	624.19	-178.86	233.2	707.41	195.13	179.92	715.12	-203.34	-56.876	177.76	-53.245	285.61	1148.7	7.598	134.98	1002.3	-278.67	403.73	71.278	18.73	144.97	533.98	-159.72	276.96	847.8	146.99	228.2	624.87	-142.18	-207.46	127.47	-43.768	212.44	850.83	-162.73	-156.29	127.32	-90.156	408.03	64.672	98.025	-28.649	265.51	-127.96	-4.8854	252.68	-62.439	-106.47	49.45	-96.373	-133.75	121.76	-13.054	-40.901	22.784	-53.876	61.389	316.37	-71.196
310	1.55	135.18	1466.5	-56.211	105.43	1334.3	12.439	76.369	1064.2	-9.3653	76.563	1228	131.62	50.388	882.45	-42.214	55.085	876.63	57.052	145.35	702.33	315.92	112.32	962.93	-213.65	-72.224	54.788	-42.63	99.626	434.64	-153.45	187.4	734.75	276.9	308.07	1462.6	-37.012	182.1	1117.2	-248.14	155.33	1105.4	238.62	99.681	840.66	276.69	228.11	1252.5	15.841	299.98	752.08	-318.51	315.71	1474.1	38.916	81.042	933.54	182.71	244.01	778.18	-307.37	187.79	1281.7	-153.11	136.29	1477.7	66.841	173.52	1262.2	165.1	301.83	540.03	148.12	191.74	884.85	-301.58	112.72	729.42	270.79	269.33	627.47	171.26	333.06	660.83	142.47	397.34	336.3	46.243	405.66	244.77	51.009	351.62	35.41	78.481	561.7	34.142	38.405	425.22	152.83	49.469	351.46	454.02	130.35	503.23	54.891	32.403	488.84	35.603	85.142	303.63	788.06	-264.63	111.52	966.33	266.9	387.57	242.25	120.27	174.83	624.7	-178.82	241.25	709.24	195.73	187.77	715.93	-202.89	-50.136	180.11	-54.013	292.32	1149.8	8.4794	141.45	1003.2	-277.32	404.56	71.08	18.855	154.86	534.25	-160.25	283.62	848.75	147.11	237.09	625.91	-142.24	-201.22	134.11	-43.505	219.96	851.22	-162.41	-150.84	132.06	-90.238	408.71	64.376	98.205	-20.767	267.59	-128.6	3.2405	254	-63.37	-103.98	51.591	-96.238	-127.9	125.87	-13.283	-40.947	22.914	-53.652	70.766	316.43	-72.371
311	1.555	141.7	1467.5	-55.212	112.05	1335.3	13.509	83.001	1065.3	-8.5088	83.462	1228.9	132.74	57.227	882.63	-42.048	61.87	877.47	57.396	154.11	702.86	316.28	119.08	964.11	-212.04	-69.495	55.796	-42.548	110.74	434.51	-154.3	196.06	735.26	277.12	314.63	1463.7	-36.16	188.54	1118.3	-247.09	163.48	1105.9	239.17	108.32	841.15	277.06	234.71	1253.7	16.677	304.81	752.13	-318.05	322.3	1475.2	39.766	89.461	934.07	183.05	249.05	778.61	-306.75	194.21	1282.9	-152.22	142.92	1478.7	67.85	180.42	1263.2	166.06	307.65	541.06	148.88	197.5	885.62	-300.57	121.37	729.91	271.21	276.19	628.92	171.95	339.93	661.57	142.37	401.54	336.24	46.773	408.62	244.59	51.379	351.85	35.728	78.606	562.1	31.888	38.298	427.04	152.39	49.75	356.88	454.48	130.95	503.79	53.455	32.461	489.1	34.446	85.357	308.85	787.99	-264.14	120.18	966.76	267.34	390.64	242.22	120.71	183.82	625.31	-178.8	249.08	711.06	196.39	195.65	716.82	-202.43	-42.964	182.54	-54.828	298.98	1150.9	9.3151	147.88	1004.2	-276	405.25	70.954	19.009	164.97	534.6	-160.81	290.19	849.78	147.21	246.1	627.09	-142.35	-194.46	140.87	-43.261	227.43	851.66	-162.11	-144.93	136.94	-90.32	409.28	64.138	98.412	-12.493	269.78	-129.27	11.783	255.37	-64.361	-101.16	53.959	-96.15	-121.58	130.12	-13.483	-40.768	23.139	-53.508	80.515	316.52	-73.617
